<svg width="28" height="28" viewBox="0 0 28 28" fill="none" xmlns="http://www.w3.org/2000/svg">
<path fill-rule="evenodd" clip-rule="evenodd" d="M27.44 14.3182C27.44 13.3255 27.3509 12.371 27.1855 11.4546H14V16.87H21.5345C21.21 18.62 20.2236 20.1028 18.7409 21.0955V24.6082H23.2655C25.9127 22.171 27.44 18.5819 27.44 14.3182Z" fill="#4285F4"/>
<path fill-rule="evenodd" clip-rule="evenodd" d="M14.0002 28.0002C17.7802 28.0002 20.9493 26.7465 23.2656 24.6083L18.7411 21.0956C17.4874 21.9356 15.8838 22.432 14.0002 22.432C10.3538 22.432 7.26744 19.9692 6.16653 16.6602H1.48926V20.2874C3.7929 24.8629 8.52744 28.0002 14.0002 28.0002Z" fill="#34A853"/>
<path fill-rule="evenodd" clip-rule="evenodd" d="M6.16637 16.6602C5.88637 15.8202 5.72727 14.9229 5.72727 14.0002C5.72727 13.0774 5.88637 12.1802 6.16637 11.3402V7.71289H1.48909C0.540909 9.60289 0 11.7411 0 14.0002C0 16.2593 0.540909 18.3974 1.48909 20.2874L6.16637 16.6602Z" fill="#FBBC05"/>
<path fill-rule="evenodd" clip-rule="evenodd" d="M14.0002 5.56818C16.0556 5.56818 17.9011 6.27455 19.352 7.66182L23.3674 3.64637C20.9429 1.38727 17.7738 0 14.0002 0C8.52744 0 3.7929 3.13727 1.48926 7.71273L6.16653 11.34C7.26744 8.03091 10.3538 5.56818 14.0002 5.56818Z" fill="#EA4335"/>
</svg>
